<?xml version="1.0" standalone="no"?>
<!DOCTYPE svg PUBLIC "-//W3C//DTD SVG 20010904//EN"
 "http://www.w3.org/TR/2001/REC-SVG-20010904/DTD/svg10.dtd">
<svg version="1.0" xmlns="http://www.w3.org/2000/svg"
 width="2048.000000pt" height="1975.000000pt" viewBox="0 0 2048.000000 1975.000000"
 preserveAspectRatio="xMidYMid meet">

<g transform="translate(0.000000,1975.000000) scale(0.100000,-0.100000)"
fill="#000000" stroke="none">
<path d="M10035 19363 c-51 -12 -175 -58 -227 -84 -73 -37 -164 -113 -222
-186 -26 -32 -50 -63 -55 -69 -46 -56 -97 -207 -111 -328 -14 -112 -1 -207 45
-329 18 -48 31 -96 28 -106 -3 -11 -53 -60 -111 -109 -59 -49 -170 -143 -247
-207 -213 -178 -549 -468 -575 -495 -31 -32 -37 -32 -129 15 -50 25 -123 52
-162 60 -82 17 -246 19 -339 4 -143 -23 -341 -138 -432 -250 -50 -62 -112
-166 -133 -221 -10 -27 -20 -48 -24 -48 -3 0 -69 9 -146 20 -77 12 -241 32
-365 45 -484 54 -528 60 -541 85 -4 8 -17 53 -30 98 -86 322 -464 562 -805
512 -190 -27 -312 -87 -445 -220 -83 -83 -102 -108 -142 -190 -66 -138 -81
-201 -81 -355 -1 -127 0 -133 38 -239 85 -237 244 -398 471 -477 83 -29 100
-32 230 -33 150 -1 189 7 297 58 30 14 60 26 65 26 10 0 25 -16 90 -92 25 -30
102 -125 147 -183 17 -21 56 -69 86 -105 31 -36 96 -114 145 -175 79 -97 173
-208 228 -270 38 -41 38 -49 -2 -108 -21 -31 -51 -93 -67 -138 l-29 -82 -150
6 c-82 4 -337 14 -565 23 -228 8 -536 21 -684 27 l-269 12 -27 80 c-35 106
-60 152 -121 225 -225 271 -622 353 -944 195 -122 -60 -257 -183 -309 -283
-11 -20 -32 -73 -47 -117 -26 -76 -29 -80 -60 -85 -36 -5 -816 5 -1323 18
l-298 7 -27 66 c-80 200 -273 364 -488 413 -93 21 -288 21 -367 1 -269 -70
-480 -273 -553 -530 -21 -74 -28 -270 -13 -362 29 -184 152 -375 310 -483 136
-92 242 -124 420 -124 157 -1 266 21 375 75 l80 40 160 -62 c88 -34 266 -105
395 -157 251 -101 513 -205 570 -226 19 -7 181 -72 360 -143 321 -129 512
-204 1070 -422 439 -172 943 -371 1285 -508 171 -68 344 -137 385 -153 41 -16
134 -51 205 -78 72 -27 252 -98 400 -157 149 -59 308 -122 355 -140 47 -18
207 -81 355 -140 149 -58 329 -129 400 -157 72 -28 270 -107 440 -176 171 -69
344 -137 385 -153 41 -15 172 -66 290 -112 250 -98 432 -169 615 -240 72 -27
247 -96 390 -153 143 -56 350 -136 460 -177 110 -41 224 -84 253 -96 37 -15
75 -21 130 -21 83 0 52 -11 602 205 74 30 146 57 160 61 14 3 42 15 64 26 21
11 73 32 115 48 97 36 437 166 611 234 74 30 189 74 255 99 66 25 174 67 240
92 66 25 165 63 220 84 172 66 226 87 385 151 85 34 166 67 180 73 14 5 52 20
85 33 127 48 497 194 538 213 25 11 71 30 103 41 33 12 102 39 154 60 52 20
147 57 210 80 63 24 234 90 380 148 325 128 394 155 585 227 83 31 168 64 190
75 22 10 74 30 115 45 41 15 113 42 160 60 251 98 428 165 455 172 11 3 26 11
34 17 14 11 58 28 132 51 25 8 58 24 73 36 14 11 26 17 26 14 0 -4 10 -1 23 7
22 15 67 31 120 42 15 4 25 11 22 15 -3 5 3 7 13 4 11 -2 26 3 35 12 9 8 19
16 22 15 3 0 13 0 23 1 14 0 14 2 -3 9 -15 7 -10 9 23 9 46 1 59 20 15 22 -16
1 -1 5 32 10 33 5 66 7 73 4 8 -3 10 0 6 7 -5 8 -2 9 10 5 11 -5 25 1 39 17
24 27 75 48 62 26 -5 -8 -3 -11 6 -7 8 3 37 13 65 23 28 9 56 26 63 37 12 18
11 19 -8 14 -15 -4 -21 0 -21 11 0 14 -2 13 -13 -2 -11 -15 -13 -14 -15 13 -2
22 2 31 13 31 17 0 21 25 5 35 -5 3 -10 1 -10 -6 0 -10 -3 -10 -12 -1 -19 19
-30 14 -28 -10 4 -44 0 -69 -10 -63 -5 3 -28 1 -51 -5 -49 -13 -89 1 -89 32 0
15 -9 18 -60 18 l-60 0 0 38 c0 37 -22 82 -41 82 -5 0 -9 -9 -9 -20 0 -17 -7
-20 -40 -20 -29 0 -40 -4 -40 -15 0 -11 -11 -15 -40 -15 -29 0 -40 4 -40 15 0
11 11 15 40 15 l40 0 0 40 0 40 -40 0 -40 0 0 40 c0 29 -4 40 -15 40 -11 0
-15 11 -15 40 0 29 4 40 15 40 11 0 15 -11 15 -40 l0 -40 40 0 40 0 0 40 0 40
40 0 c39 0 40 1 40 35 0 34 -1 35 -40 35 -39 0 -40 -1 -40 -35 0 -28 -4 -35
-20 -35 -16 0 -20 7 -20 34 0 25 -5 35 -20 39 -16 4 -20 0 -20 -19 0 -17 -4
-22 -16 -17 -13 5 -13 7 -2 14 7 5 -29 7 -84 6 -68 -1 -90 -5 -75 -11 20 -8
19 -10 -13 -16 -19 -3 -45 -12 -57 -18 -12 -7 -28 -9 -36 -6 -9 3 -27 -2 -41
-11 -14 -9 -42 -17 -62 -18 -20 -1 -32 -3 -25 -5 6 -2 11 -8 11 -13 0 -12 -27
-12 -32 1 -2 6 -8 6 -18 0 -13 -8 -12 -10 3 -10 9 0 17 -4 17 -10 0 -13 -33
-13 -48 0 -6 6 -10 7 -7 4 10 -15 -28 -36 -71 -39 -26 -2 -59 -7 -74 -10 -25
-5 -31 -1 -60 47 -46 76 -109 138 -140 138 -17 0 -21 3 -12 9 11 7 10 10 -3
15 -9 3 -21 4 -26 0 -5 -3 -9 -1 -9 4 0 16 -101 63 -124 57 -16 -5 -17 -4 -7
4 31 21 -135 27 -194 6 -17 -6 -18 -5 -5 5 12 10 11 11 -10 6 -14 -3 -31 -6
-38 -6 -7 0 -10 -4 -7 -10 3 -5 -1 -10 -10 -10 -10 0 -13 5 -9 12 4 7 -9 2
-30 -10 -20 -12 -44 -22 -52 -22 -8 0 -14 -3 -14 -7 0 -5 -18 -17 -40 -27 -22
-10 -37 -23 -34 -27 3 -5 -1 -9 -9 -9 -12 0 -36 -24 -85 -90 -11 -14 -33 -53
-51 -87 -17 -35 -37 -63 -44 -64 -82 -5 -1245 -7 -1252 -1 -5 4 -20 39 -33 77
-46 139 -137 242 -274 313 -233 119 -501 89 -688 -76 -19 -17 -39 -28 -45 -25
-5 4 -73 47 -150 98 -77 50 -176 115 -220 143 -81 52 -264 177 -422 289 -142
101 -183 119 -303 132 -58 7 -197 25 -310 40 -113 16 -257 34 -320 41 -168 17
-587 77 -670 96 -93 21 -240 81 -312 128 -114 72 -204 173 -267 299 -27 52
-38 29 -47 -98 -11 -136 39 -340 112 -465 19 -32 34 -62 34 -67 0 -5 -73 -79
-162 -164 -89 -85 -215 -208 -280 -274 l-118 -120 -78 42 c-112 60 -224 86
-382 86 -86 0 -145 -6 -189 -17 -66 -18 -153 -57 -182 -82 -13 -12 -41 12
-228 196 -140 139 -210 214 -205 223 4 6 22 35 39 62 73 118 112 280 101 422
-7 94 -52 247 -98 332 -30 56 -113 160 -155 194 -31 25 -29 42 18 149 23 51
48 111 55 133 8 22 18 49 23 60 5 11 19 46 32 78 l22 59 56 -9 c94 -14 250 -9
326 11 205 53 395 205 494 395 55 106 71 169 78 296 7 130 -8 235 -43 319 -41
97 -42 95 33 156 36 30 89 76 117 101 44 41 107 94 246 211 19 16 147 127 283
246 137 119 255 219 264 220 8 2 22 -3 31 -11 30 -26 119 -66 199 -89 109 -31
274 -31 391 0 73 20 160 59 186 83 16 15 21 11 72 -53 27 -35 81 -96 121 -135
82 -83 80 -66 19 -217 -46 -112 -60 -203 -53 -331 10 -169 84 -347 200 -481
81 -94 259 -192 393 -215 89 -15 283 -6 348 16 128 44 245 112 325 188 67 65
151 193 178 272 17 49 26 61 45 63 13 2 102 -7 198 -19 233 -28 292 -34 515
-53 105 -9 222 -21 260 -27 206 -30 559 -59 490 -40 -27 8 -25 9 20 10 59 1
97 -8 89 -20 -3 -5 4 -9 15 -9 11 0 23 -5 26 -11 4 -5 12 -8 18 -6 13 4 37
-55 37 -93 0 -14 10 -36 21 -50 l21 -25 -6 28 c-4 15 -2 27 3 27 5 0 12 -10
14 -22 3 -14 5 -8 6 15 0 22 -3 36 -9 32 -12 -8 -20 29 -17 82 1 24 -1 42 -4
40 -9 -3 -49 34 -49 45 0 5 6 6 13 2 6 -4 2 3 -11 16 -14 13 -31 20 -42 17
-20 -5 -30 10 -30 49 0 15 6 24 15 24 11 0 15 12 15 49 0 59 -17 76 -70 72
-21 -1 -41 2 -45 8 -3 6 -21 10 -38 10 l-32 -2 35 -7 c34 -7 34 -7 -12 -9 -26
0 -50 4 -54 11 -5 8 -1 9 12 5 18 -7 18 -6 -1 8 -18 14 -21 14 -32 -1 -11 -16
-14 -16 -30 -2 -11 10 -48 18 -98 22 -88 6 -127 15 -120 25 7 13 -173 34 -283
34 -63 0 -97 3 -82 8 22 6 21 7 -12 9 -57 4 -81 6 -238 24 -224 25 -473 56
-491 61 -9 3 -22 33 -34 78 -18 71 -73 189 -111 237 -44 57 -154 160 -205 193
-79 50 -135 74 -249 103 -135 35 -265 31 -385 -10 -44 -15 -82 -30 -85 -34 -3
-4 -22 -16 -43 -26 -37 -19 -38 -19 -56 0 -97 103 -231 254 -231 259 0 3 16
39 36 80 22 48 43 114 56 183 18 96 19 117 8 207 -26 223 -110 377 -282 516
-94 76 -189 121 -328 155 -52 13 -222 17 -265 7z m3125 -2067 c0 -2 -11 -6
-25 -8 -13 -3 -22 -1 -19 3 5 9 44 13 44 5z m73 -13 c-7 -2 -19 -2 -25 0 -7 3
-2 5 12 5 14 0 19 -2 13 -5z m494 -89 c-3 -3 -12 -4 -19 -1 -8 3 -5 6 6 6 11
1 17 -2 13 -5z m30 -81 c-3 -2 -16 -3 -29 -1 l-23 3 25 25 25 25 3 -23 c2 -13
1 -26 -1 -29z m0 -72 c0 -11 -5 -18 -9 -15 -4 3 -5 11 -1 19 7 21 12 19 10 -4z
m-437 -55 c0 -2 -11 -6 -25 -8 -13 -3 -22 -1 -19 3 5 9 44 13 44 5z m480 -47
c0 -8 5 -8 15 1 12 10 15 10 16 -1 0 -10 2 -11 6 -1 7 18 23 14 23 -6 0 -19
-16 -22 -57 -8 -23 7 -32 26 -13 26 6 0 10 -5 10 -11z m-7408 -144 c166 -21
633 -72 786 -86 72 -7 136 -17 140 -23 5 -6 14 -47 20 -90 20 -134 94 -270
196 -363 31 -29 56 -55 56 -60 0 -9 -177 -433 -183 -440 -3 -2 -33 3 -68 12
-46 12 -91 16 -159 13 -84 -4 -106 -9 -192 -46 -53 -23 -104 -42 -112 -42 -8
0 -32 21 -53 47 -21 25 -84 101 -140 167 -500 594 -533 635 -533 658 0 10 18
49 40 85 21 36 47 88 56 117 18 54 23 66 29 66 2 0 55 -7 117 -15z m-3033
-1921 c86 -384 497 -630 906 -542 28 6 76 23 108 39 l57 27 86 -131 c48 -73
95 -141 105 -152 43 -48 41 -66 -15 -129 l-52 -58 -111 51 c-61 27 -133 59
-159 69 -220 86 -591 230 -644 249 -78 29 -264 103 -375 148 -148 61 -600 235
-610 235 -2 0 -28 11 -57 24 -51 23 -161 66 -412 160 -66 25 -124 50 -130 56
-7 7 191 10 640 10 l651 0 12 -56z m1836 31 c455 -22 1055 -45 1175 -45 l106
0 12 -57 c7 -32 23 -82 37 -111 14 -30 25 -64 24 -75 0 -23 -23 -40 -539 -398
-360 -251 -317 -225 -342 -203 -12 10 -38 34 -58 52 -78 72 -251 141 -392 157
-56 6 -186 -7 -240 -25 -25 -8 -29 -4 -81 73 -30 45 -89 132 -131 192 -41 61
-76 118 -76 127 0 10 15 41 33 70 38 60 81 164 91 221 8 44 -36 42 381 22z
m5825 -210 c16 -8 152 -97 302 -198 150 -101 314 -208 363 -237 50 -30 109
-68 132 -85 36 -26 216 -142 264 -170 108 -63 309 -193 313 -203 3 -7 -2 -40
-10 -75 -12 -45 -15 -90 -11 -167 4 -88 9 -116 35 -175 34 -78 33 -85 -25
-135 -21 -18 -90 -81 -153 -140 -151 -140 -454 -411 -555 -497 -16 -14 -57
-51 -90 -82 -34 -31 -99 -90 -145 -132 -47 -42 -132 -118 -189 -170 -279 -252
-467 -394 -580 -439 -29 -11 -94 -34 -144 -50 -50 -17 -110 -42 -133 -55 -24
-14 -49 -25 -56 -25 -8 0 -57 17 -109 38 -120 49 -79 -1 -546 669 -43 61 -153
218 -245 348 -93 130 -168 246 -168 257 0 12 22 56 49 98 28 42 59 104 70 138
24 71 51 217 51 276 0 62 -46 249 -74 307 -15 28 -26 57 -26 66 0 20 561 573
582 573 9 0 33 -9 55 -19 112 -57 277 -81 411 -62 233 34 446 153 562 315 18
25 35 46 37 46 2 0 17 -7 33 -15z m-4202 -359 c21 -13 83 -41 137 -62 l100
-39 160 0 c158 0 161 0 245 34 47 18 91 38 98 44 9 7 27 -5 69 -49 31 -32 127
-131 215 -220 87 -88 158 -169 158 -179 0 -10 -16 -57 -35 -105 -105 -263 -46
-591 143 -792 89 -94 237 -186 347 -217 139 -39 375 -31 470 15 57 28 45 36
118 -76 65 -99 325 -474 398 -575 73 -100 91 -130 83 -138 -3 -2 -42 11 -87
30 -77 33 -178 73 -662 263 -989 389 -898 353 -1220 481 -358 142 -537 213
-650 255 -49 19 -121 47 -160 64 -81 34 -452 182 -540 215 -33 13 -123 48
-200 78 l-140 54 -6 149 c-5 129 -3 151 10 164 18 16 30 25 220 158 68 48 147
104 175 124 28 21 139 97 246 169 107 73 209 143 225 155 37 29 37 29 83 0z
m8610 -253 c-10 -2 -26 -2 -35 0 -10 3 -2 5 17 5 19 0 27 -2 18 -5z m972 -163
c0 -5 -7 -10 -16 -10 -8 0 -12 5 -9 10 3 6 10 10 16 10 5 0 9 -4 9 -10z m593
-417 c-7 -2 -19 -2 -25 0 -7 3 -2 5 12 5 14 0 19 -2 13 -5z m-167 -25 c-10 -6
-20 -7 -24 -3 -9 8 20 25 31 18 5 -3 2 -10 -7 -15z m-1972 -20 c19 -30 -6 -51
-97 -83 -47 -16 -89 -33 -93 -37 -4 -5 -14 -8 -21 -8 -15 0 -154 -51 -258 -95
-16 -7 -52 -20 -80 -29 -27 -9 -59 -20 -70 -25 -71 -31 -105 -45 -235 -96
-161 -62 -235 -90 -420 -160 -69 -26 -140 -54 -159 -62 -19 -9 -82 -35 -140
-58 -58 -23 -167 -67 -241 -98 -74 -30 -146 -58 -160 -62 -14 -4 -38 -13 -55
-21 -55 -24 -160 -65 -205 -80 -25 -9 -63 -23 -85 -33 -22 -10 -96 -39 -165
-65 -69 -27 -141 -54 -160 -61 -19 -8 -116 -44 -215 -81 -99 -37 -218 -83
-265 -104 -47 -20 -97 -40 -112 -43 -49 -13 -20 29 76 106 100 81 269 230 386
341 42 39 116 107 165 151 50 44 151 140 226 212 75 73 141 133 146 133 5 0
43 -17 84 -38 60 -32 92 -41 173 -51 202 -26 357 13 499 124 103 82 162 177
203 333 3 10 134 12 635 10 589 -3 633 -4 643 -20z m1693 -124 c-3 -3 -12 -4
-19 -1 -8 3 -5 6 6 6 11 1 17 -2 13 -5z"/>
<path d="M13890 17279 c0 -6 -6 -9 -13 -6 -8 3 -14 0 -14 -6 0 -7 -4 -21 -9
-31 -5 -14 -4 -17 4 -12 7 4 12 14 12 22 0 8 7 14 15 14 8 0 15 7 15 15 0 8
-2 15 -5 15 -3 0 -5 -5 -5 -11z"/>
<path d="M13887 17234 c-4 -4 -7 -14 -7 -23 0 -11 3 -12 11 -4 6 6 10 16 7 23
-2 6 -7 8 -11 4z"/>
<path d="M13850 17200 c0 -6 -3 -9 -7 -7 -5 3 -6 -19 -5 -49 2 -30 8 -54 12
-54 10 0 18 110 8 117 -5 2 -8 -1 -8 -7z"/>
<path d="M13861 16694 c0 -11 3 -14 6 -6 3 7 2 16 -1 19 -3 4 -6 -2 -5 -13z"/>
<path d="M13912 16680 c0 -14 2 -19 5 -12 2 6 2 18 0 25 -3 6 -5 1 -5 -13z"/>
<path d="M13880 16665 c0 -18 19 -40 26 -32 4 4 0 15 -9 24 -9 10 -17 13 -17
8z"/>
<path d="M13827 16614 c-4 -4 -7 -18 -7 -30 0 -31 -16 -39 -23 -12 -6 21 -7
21 -25 5 -10 -9 -26 -17 -36 -17 -9 0 -14 -5 -11 -10 3 -6 -4 -14 -17 -19 -13
-5 -33 -19 -45 -30 -12 -12 -31 -21 -43 -21 -11 0 -20 -7 -20 -16 0 -8 -5 -12
-10 -9 -6 3 -13 -1 -16 -9 -3 -9 -14 -16 -25 -16 -10 0 -23 -9 -30 -21 -7 -14
-17 -19 -30 -16 -10 3 -17 2 -14 -2 7 -12 -45 -52 -57 -45 -6 4 -8 3 -4 -4 3
-6 2 -13 -4 -17 -5 -3 -10 -1 -10 6 0 8 -8 4 -19 -7 -10 -11 -33 -26 -50 -34
-18 -7 -30 -18 -27 -25 2 -7 -3 -12 -12 -11 -9 0 -16 -4 -15 -11 2 -7 -4 -10
-12 -7 -8 4 -15 2 -15 -3 0 -6 -10 -15 -22 -20 -13 -6 -63 -41 -113 -77 -49
-36 -100 -73 -112 -82 -13 -9 -31 -22 -40 -29 -24 -18 -11 -28 40 -31 39 -3
112 -13 319 -46 l77 -12 58 39 c114 76 370 274 430 333 18 18 33 30 33 26 0
-4 13 5 29 20 16 16 27 35 24 42 -3 9 2 14 14 14 23 0 63 27 63 43 0 8 -3 8
-8 2 -4 -5 -15 -16 -24 -23 -15 -12 -16 -10 -13 15 2 15 4 31 4 35 1 4 7 13
15 21 12 12 12 16 -5 30 -18 16 -19 15 -19 -23 0 -29 -6 -43 -22 -55 -21 -14
-24 -14 -35 2 -18 23 -16 53 2 53 8 0 15 9 15 21 0 16 -6 20 -27 18 -86 -7
-118 11 -73 39 21 13 27 32 9 32 -5 0 -7 -4 -4 -10 8 -13 -8 -13 -21 0 -6 6
-13 7 -17 4z m90 -136 c-3 -8 -6 -5 -6 6 -1 11 2 17 5 13 3 -3 4 -12 1 -19z
m33 -108 c-13 -11 -25 -20 -28 -20 -3 0 3 9 13 20 10 11 23 20 28 20 6 0 0 -9
-13 -20z"/>
<path d="M3195 16547 c-99 -33 -168 -93 -215 -187 -61 -122 -63 -233 -7 -348
42 -85 102 -146 184 -184 57 -27 77 -31 152 -32 74 -1 94 3 144 27 118 54 185
130 213 239 48 185 -37 378 -201 459 -52 25 -79 32 -147 35 -53 3 -98 -1 -123
-9z"/>
<path d="M14110 16460 c19 -13 30 -13 30 0 0 6 -10 10 -22 10 -19 0 -20 -2 -8
-10z"/>
<path d="M14225 16380 c3 -5 8 -10 11 -10 2 0 4 5 4 10 0 6 -5 10 -11 10 -5 0
-7 -4 -4 -10z"/>
<path d="M14275 16380 c11 -5 27 -9 35 -9 9 0 8 4 -5 9 -11 5 -27 9 -35 9 -9
0 -8 -4 5 -9z"/>
<path d="M14285 16350 c3 -5 14 -10 23 -10 15 0 15 2 2 10 -20 13 -33 13 -25
0z"/>
<path d="M14468 16293 c12 -2 30 -2 40 0 9 3 -1 5 -23 4 -22 0 -30 -2 -17 -4z"/>
<path d="M10105 15907 c-144 -77 -224 -226 -196 -363 37 -187 153 -279 376
-298 131 -12 260 -27 435 -51 96 -14 283 -38 415 -55 132 -17 299 -39 370 -49
72 -11 209 -29 305 -41 96 -11 258 -32 360 -45 102 -14 286 -36 410 -50 124
-14 329 -38 455 -54 127 -17 295 -37 375 -46 80 -8 174 -19 210 -24 145 -20
392 -50 500 -61 63 -6 174 -20 245 -31 72 -11 243 -34 380 -50 138 -16 279
-33 315 -38 201 -28 312 -42 460 -56 91 -9 208 -23 260 -32 52 -9 128 -17 167
-17 40 -1 73 -4 73 -8 0 -5 15 -8 33 -7 27 0 29 2 12 9 -11 5 -15 9 -10 10 15
3 -55 21 -101 27 -37 4 -40 7 -36 29 3 17 11 24 28 24 19 0 24 5 24 24 0 37
-10 56 -31 56 -10 0 -19 7 -19 15 0 11 -11 15 -40 15 -22 0 -40 5 -40 11 0 6
-7 17 -15 25 -8 9 -15 33 -15 55 0 32 -3 39 -20 39 -19 0 -20 7 -22 123 -2
122 -2 122 -5 25 l-4 -98 -39 0 c-29 0 -40 4 -40 15 0 8 -7 15 -15 15 -11 0
-15 11 -15 40 0 29 4 40 15 40 11 0 15 11 15 40 0 36 -2 40 -26 40 -14 0 -23
4 -19 10 3 6 -3 10 -14 10 -17 0 -21 6 -21 30 0 23 4 30 20 30 13 0 20 -7 20
-20 0 -11 7 -20 15 -20 7 0 18 -7 23 -16 7 -13 11 -14 17 -4 5 8 1 18 -10 26
-10 8 -15 20 -12 29 5 12 17 14 59 10 29 -3 67 -2 83 3 24 7 15 9 -48 10 -44
0 -82 3 -85 6 -3 3 8 6 24 7 57 1 -12 19 -102 25 -46 4 -84 11 -84 15 0 5 -34
9 -75 9 -53 0 -75 4 -75 13 0 9 -22 11 -85 9 -52 -2 -85 0 -85 7 0 5 8 11 18
14 9 2 -32 7 -93 11 -60 4 -126 12 -145 17 -19 5 -66 9 -105 10 -50 1 -63 3
-45 9 22 7 23 8 4 9 -12 1 -43 4 -69 8 -35 4 -46 3 -41 -5 5 -8 2 -10 -8 -6
-9 3 -16 10 -16 14 0 4 -42 11 -92 15 -128 10 -129 10 -363 44 -77 11 -234 32
-350 46 -229 28 -723 90 -1040 131 -381 49 -501 64 -670 84 -93 12 -233 29
-310 40 -77 10 -212 26 -300 35 -88 9 -187 20 -220 25 -102 16 -427 59 -495
65 -63 6 -217 28 -424 60 -55 8 -138 15 -185 15 -78 -1 -92 -4 -146 -33z
m4568 -534 c-7 -2 -19 -2 -25 0 -7 3 -2 5 12 5 14 0 19 -2 13 -5z m680 -100
c-7 -2 -19 -2 -25 0 -7 3 -2 5 12 5 14 0 19 -2 13 -5z m100 -660 c-7 -2 -19
-2 -25 0 -7 3 -2 5 12 5 14 0 19 -2 13 -5z m44 1 c-3 -3 -12 -4 -19 -1 -8 3
-5 6 6 6 11 1 17 -2 13 -5z m100 -10 c-3 -3 -12 -4 -19 -1 -8 3 -5 6 6 6 11 1
17 -2 13 -5z m236 -1 c-7 -2 -19 -2 -25 0 -7 3 -2 5 12 5 14 0 19 -2 13 -5z"/>
<path d="M15730 15140 c0 -5 7 -10 16 -10 8 0 12 5 9 10 -3 6 -10 10 -16 10
-5 0 -9 -4 -9 -10z"/>
<path d="M16008 14633 c6 -2 18 -2 25 0 6 3 1 5 -13 5 -14 0 -19 -2 -12 -5z"/>
<path d="M16075 14560 c-3 -5 1 -10 9 -10 9 0 16 5 16 10 0 6 -4 10 -9 10 -6
0 -13 -4 -16 -10z"/>
<path d="M16123 14523 c9 -2 23 -2 30 0 6 3 -1 5 -18 5 -16 0 -22 -2 -12 -5z"/>
<path d="M16193 14513 c9 -2 25 -2 35 0 9 3 1 5 -18 5 -19 0 -27 -2 -17 -5z"/>
<path d="M16551 14033 c-1 -8 -15 -13 -33 -13 -18 0 -40 -5 -48 -11 -13 -9
-13 -10 1 -6 9 3 34 2 55 -3 24 -6 43 -5 48 0 7 7 6 10 -1 10 -6 0 -14 8 -16
18 -3 9 -5 11 -6 5z"/>
<path d="M16628 14013 c7 -3 16 -2 19 1 4 3 -2 6 -13 5 -11 0 -14 -3 -6 -6z"/>
<path d="M17470 13851 c0 -5 7 -12 16 -15 24 -9 28 -7 14 9 -14 17 -30 20 -30
6z"/>
<path d="M15948 13833 c7 -3 16 -2 19 1 4 3 -2 6 -13 5 -11 0 -14 -3 -6 -6z"/>
<path d="M17538 13780 c12 -5 22 -14 22 -19 0 -5 -10 -7 -22 -4 -19 4 -20 3
-8 -6 13 -9 12 -11 -5 -12 -11 0 -15 -3 -9 -5 6 -3 23 0 38 6 23 8 25 13 16
30 -6 11 -20 20 -33 19 l-22 0 23 -9z"/>
<path d="M16803 13710 c0 -25 2 -35 4 -22 2 12 2 32 0 45 -2 12 -4 2 -4 -23z"/>
<path d="M17320 13660 c0 -5 5 -10 10 -10 6 0 10 5 10 10 0 6 -4 10 -10 10 -5
0 -10 -4 -10 -10z"/>
<path d="M16840 13575 c0 -16 27 -32 37 -22 5 6 -21 37 -31 37 -3 0 -6 -7 -6
-15z"/>
<path d="M17040 13578 c0 -16 20 -28 46 -28 8 0 14 5 14 10 0 6 -8 10 -18 10
-10 0 -23 5 -30 12 -9 9 -12 8 -12 -4z"/>
<path d="M17104 13579 c16 -4 35 -5 43 -1 7 5 -5 8 -30 9 -38 1 -39 0 -13 -8z"/>
<path d="M17188 13573 c6 -2 18 -2 25 0 6 3 1 5 -13 5 -14 0 -19 -2 -12 -5z"/>
<path d="M4590 11248 c0 -899 4 -1453 10 -1522 21 -216 78 -423 167 -601 76
-152 127 -221 262 -356 201 -199 456 -349 841 -493 131 -50 404 -135 530 -166
87 -22 238 -62 485 -130 77 -21 212 -57 300 -80 491 -128 983 -278 1335 -406
412 -149 712 -318 934 -525 l68 -64 2 -145 c2 -135 4 -152 35 -240 84 -248
285 -438 529 -501 86 -22 258 -26 344 -8 245 52 459 234 545 464 49 130 57
175 50 310 l-6 121 62 61 c95 93 162 143 308 230 183 109 409 218 582 279 40
15 86 32 102 40 53 23 317 114 420 144 55 16 127 39 160 50 33 12 94 30 135
41 41 11 100 29 130 39 30 10 118 36 195 56 255 67 459 121 575 154 256 71
399 110 470 129 135 35 383 111 480 147 235 88 517 218 587 270 17 13 35 24
38 24 4 0 50 32 102 72 246 185 413 417 515 718 90 267 88 216 88 1827 l0
1403 -27 -6 c-16 -4 -32 -11 -37 -15 -6 -5 -16 -9 -24 -9 -8 0 -28 -6 -45 -14
-18 -8 -63 -27 -102 -42 -38 -14 -83 -32 -100 -40 -40 -17 -229 -88 -335 -125
-47 -17 -100 -37 -119 -46 -18 -8 -45 -19 -60 -23 -14 -5 -48 -17 -76 -28
-234 -91 -329 -127 -385 -148 -36 -14 -74 -28 -85 -33 -44 -20 -152 -59 -195
-70 -25 -7 -54 -19 -64 -26 -18 -14 -18 -17 18 -75 38 -61 39 -86 2 -107 -7
-4 -49 -40 -92 -79 -82 -74 -224 -199 -334 -294 -35 -30 -68 -59 -74 -65 -6
-5 -43 -37 -81 -70 -39 -33 -72 -62 -75 -65 -3 -3 -32 -28 -65 -55 -63 -53
-88 -75 -199 -174 -37 -33 -72 -61 -78 -61 -5 0 -24 11 -41 24 -45 33 -102 61
-183 88 -61 20 -88 23 -229 23 -150 -1 -165 -2 -240 -29 -107 -38 -144 -58
-229 -121 -84 -62 -109 -89 -165 -171 -72 -108 -115 -229 -131 -378 -15 -132
26 -309 102 -442 48 -85 49 -86 32 -112 -16 -25 -131 -181 -494 -667 -70 -93
-247 -332 -395 -530 -148 -198 -284 -380 -303 -405 -90 -118 -367 -488 -456
-607 -72 -99 -103 -133 -115 -129 -150 49 -258 59 -361 31 -96 -26 -82 -38
-239 213 -78 125 -193 306 -256 402 -63 96 -136 209 -162 250 -27 41 -228 343
-448 670 -219 327 -421 629 -449 670 -27 41 -80 118 -118 171 -37 53 -68 104
-68 113 0 9 11 28 23 42 31 33 99 147 121 203 46 117 59 300 31 448 -9 50 -31
112 -61 173 -40 81 -61 109 -143 191 -104 104 -185 156 -306 197 -60 21 -89
24 -210 24 -164 1 -228 -13 -353 -75 -90 -45 -200 -131 -247 -193 -16 -21 -32
-41 -35 -44 -14 -12 -55 -91 -85 -167 -96 -237 -54 -548 101 -752 19 -24 34
-49 34 -55 0 -7 -35 -61 -77 -121 -42 -61 -134 -195 -203 -300 -70 -104 -134
-196 -143 -203 -13 -11 -23 -11 -60 2 -243 82 -550 -3 -742 -206 -34 -35 -70
-76 -82 -93 l-22 -30 -57 30 c-159 82 -434 300 -422 335 2 7 28 19 56 26 105
27 222 133 271 245 66 149 45 340 -52 471 -23 31 -22 33 39 138 59 101 46 94
191 95 l129 0 85 42 c182 90 279 245 279 443 0 177 -85 336 -234 439 -68 47
-101 59 -204 75 l-77 12 -52 134 c-28 74 -74 189 -103 255 -28 66 -75 181
-105 256 -78 197 -102 249 -116 249 -7 0 -46 16 -88 36 -42 20 -104 47 -139
60 -34 13 -77 30 -95 38 -48 23 -249 104 -362 147 -55 21 -131 51 -170 67 -38
16 -80 32 -92 36 l-23 7 0 -1413z m790 830 c77 -214 225 -594 277 -712 l36
-79 -29 -21 c-77 -56 -136 -139 -176 -249 -27 -76 -30 -90 -26 -182 6 -122 29
-190 100 -281 46 -61 49 -67 38 -97 -6 -18 -27 -57 -48 -87 l-37 -55 -90 4
c-50 1 -93 5 -98 8 -4 2 -7 430 -7 951 1 600 4 941 10 930 6 -9 28 -67 50
-130z m9860 -798 c0 -214 -3 -390 -7 -390 -5 0 -35 12 -68 26 -33 14 -67 28
-76 30 -25 8 -28 42 -35 328 l-7 261 65 44 c35 24 73 54 84 67 43 52 44 46 44
-366z m-655 286 c20 -14 62 -30 93 -36 97 -19 92 -15 93 -78 0 -31 6 -156 13
-277 7 -121 11 -225 9 -231 -2 -6 -36 -26 -76 -44 -82 -37 -159 -96 -204 -156
-32 -42 -93 -163 -93 -186 0 -7 -6 -20 -13 -29 -11 -14 -58 -17 -400 -20
l-388 -4 -35 78 c-19 43 -34 88 -34 101 0 17 19 40 63 77 69 60 295 261 397
354 61 56 173 156 230 205 38 33 189 172 243 224 27 25 52 46 57 46 5 0 25
-11 45 -24z m-132 -1428 c41 -87 85 -144 150 -193 163 -124 402 -151 579 -65
22 11 45 17 50 14 14 -9 0 -135 -29 -256 -54 -232 -188 -411 -395 -526 -145
-81 -195 -102 -406 -171 -229 -76 -452 -142 -627 -187 -383 -97 -452 -115
-600 -157 -88 -25 -218 -62 -290 -82 -364 -102 -520 -147 -620 -180 -38 -13
-155 -51 -260 -85 -206 -68 -318 -111 -427 -166 -38 -19 -72 -33 -75 -30 -8 8
19 47 187 267 85 112 189 251 232 309 178 244 493 685 583 818 72 104 102 141
114 138 243 -75 517 -26 721 127 83 63 89 68 137 130 50 65 108 182 133 272
l17 60 49 7 c27 4 189 11 359 16 171 5 327 9 347 10 37 2 38 1 71 -70z m-6382
-435 c8 -15 131 -204 274 -420 143 -216 282 -428 310 -470 63 -100 354 -543
457 -696 44 -66 78 -121 75 -123 -2 -3 -60 22 -128 55 -68 32 -142 64 -164 71
-22 7 -44 16 -50 20 -5 4 -68 28 -140 53 -71 25 -161 56 -200 70 -123 44 -621
199 -745 232 -35 10 -98 28 -140 42 -41 13 -120 36 -175 50 -55 14 -103 30
-107 36 -4 7 -8 44 -8 82 0 109 -66 290 -132 362 -11 12 -18 28 -15 36 3 8 76
119 162 247 86 128 182 273 212 322 54 87 56 90 87 84 75 -14 253 -16 311 -3
55 12 62 12 81 -5 12 -10 27 -31 35 -45z"/>
<path d="M18053 10465 c-3 -9 -3 -18 -1 -21 3 -3 8 4 11 16 6 23 -1 27 -10 5z"/>
<path d="M18000 10100 c0 -31 -4 -49 -10 -45 -6 4 -10 -6 -10 -23 0 -17 -6
-32 -15 -36 -9 -3 -15 -17 -14 -33 l1 -28 8 30 c6 24 8 26 9 8 0 -13 6 -23 11
-23 6 0 5 -8 -2 -20 -7 -11 -19 -20 -26 -20 -9 0 -12 -18 -9 -72 2 -43 8 -73
15 -73 5 0 14 -4 19 -9 5 -5 3 -6 -4 -2 -10 5 -11 -4 -7 -38 7 -45 6 -46 -20
-46 -24 0 -26 -3 -27 -42 0 -31 -3 -37 -8 -24 -11 29 -21 5 -16 -40 2 -21 0
-55 -5 -74 l-10 -35 5 40 c3 28 2 35 -5 25 -5 -8 -10 -29 -10 -47 0 -17 -5
-44 -11 -60 -6 -15 -15 -55 -20 -88 -9 -70 -20 -127 -50 -285 -35 -187 -37
-199 -59 -345 -11 -77 -32 -194 -45 -260 -13 -66 -34 -176 -45 -245 -12 -69
-30 -170 -40 -225 -11 -55 -29 -161 -41 -235 -27 -174 -64 -392 -84 -500 -28
-148 -45 -263 -45 -313 0 -84 54 -159 138 -193 37 -14 51 -15 95 -5 76 17 128
50 155 98 28 50 47 146 106 513 64 395 64 395 76 490 14 104 22 159 54 365 33
209 76 491 80 524 4 33 15 93 26 151 5 25 12 62 15 83 3 20 10 37 16 37 6 0 8
-70 5 -192 -2 -106 -9 -624 -16 -1151 -11 -934 -11 -959 8 -995 28 -55 94 -95
164 -100 85 -6 120 4 171 48 37 33 47 50 56 91 24 110 5 2011 -23 2294 -3 33
-2 44 4 35 8 -12 10 -11 11 5 1 11 7 -4 14 -33 7 -30 17 -57 21 -60 4 -4 4 4
0 18 -4 14 -10 71 -13 128 l-6 102 -41 0 c-23 0 -47 5 -54 12 -9 9 -12 3 -12
-30 0 -31 -4 -42 -15 -42 -11 0 -15 11 -15 40 0 36 -2 40 -25 40 -14 0 -25 4
-25 9 0 5 -14 23 -31 40 -17 17 -35 31 -40 31 -5 0 -9 18 -9 40 0 29 -4 40
-15 40 -11 0 -15 11 -15 40 0 33 3 40 20 40 17 0 20 7 20 40 l0 40 -45 0 -45
0 0 40 0 40 -40 0 -40 0 0 40 0 40 -40 0 -40 0 0 40 c0 29 4 40 15 40 11 0 15
11 15 39 0 34 -3 38 -22 37 -18 -1 -24 5 -26 27 -3 23 -8 28 -22 24 -27 -7
-46 44 -33 86 5 18 9 42 8 54 -1 12 2 20 6 17 4 -2 7 21 6 52 -3 76 -27 88
-27 14z m17 8 c-3 -7 -5 -2 -5 12 0 14 2 19 5 13 2 -7 2 -19 0 -25z m-21 -124
c-4 -9 -9 -15 -11 -12 -3 3 -3 13 1 22 4 9 9 15 11 12 3 -3 3 -13 -1 -22z
m-39 -141 c-3 -10 -5 -4 -5 12 0 17 2 24 5 18 2 -7 2 -21 0 -30z"/>
<path d="M10124 9856 c-120 -28 -262 -101 -341 -176 -47 -44 -118 -148 -153
-222 -78 -167 -80 -404 -6 -571 84 -187 222 -315 411 -381 81 -28 217 -40 313
-27 151 19 255 66 383 172 100 84 187 229 220 369 18 76 15 231 -5 309 -39
152 -126 297 -225 377 -67 54 -179 115 -259 140 -67 22 -262 27 -338 10z"/>
<path d="M18081 9854 c0 -11 3 -14 6 -6 3 7 2 16 -1 19 -3 4 -6 -2 -5 -13z"/>
<path d="M18851 9774 c0 -11 3 -14 6 -6 3 7 2 16 -1 19 -3 4 -6 -2 -5 -13z"/>
<path d="M18850 9713 c0 -13 5 -23 10 -23 13 0 13 11 0 30 -8 12 -10 11 -10
-7z"/>
<path d="M17901 9664 c0 -11 3 -14 6 -6 3 7 2 16 -1 19 -3 4 -6 -2 -5 -13z"/>
<path d="M18900 9450 c0 -11 4 -20 9 -20 5 0 7 9 4 20 -3 11 -7 20 -9 20 -2 0
-4 -9 -4 -20z"/>
<path d="M18882 9430 c0 -19 2 -27 5 -17 2 9 2 25 0 35 -3 9 -5 1 -5 -18z"/>
<path d="M18910 9379 c0 -21 -4 -28 -12 -23 -10 5 -10 4 -1 -6 8 -9 10 -34 6
-79 -3 -36 -3 -64 0 -61 3 3 7 23 9 45 2 22 7 46 12 53 4 6 4 18 0 24 -5 7 -7
27 -5 45 1 18 0 33 -3 33 -3 0 -6 -14 -6 -31z"/>
<path d="M18881 9294 c0 -11 3 -14 6 -6 3 7 2 16 -1 19 -3 4 -6 -2 -5 -13z"/>
<path d="M18927 9231 c-12 -113 -9 -201 7 -201 8 0 17 12 19 28 2 15 3 5 2
-23 -1 -27 4 -70 11 -95 8 -25 13 -61 13 -80 l-2 -35 -7 35 c-4 19 -8 29 -9
23 -2 -20 -81 -17 -81 2 0 11 -11 15 -40 15 -29 0 -40 -4 -40 -15 0 -8 -7 -15
-15 -15 -11 0 -15 11 -15 40 l0 40 -60 0 -60 0 0 40 c0 22 -3 40 -7 40 -5 0
-8 -38 -8 -84 0 -46 3 -82 8 -79 10 6 8 -47 -3 -72 -8 -17 -9 -16 -11 10 -2
27 -2 28 -6 6 -5 -28 16 -101 29 -101 4 0 8 -22 8 -49 0 -28 4 -52 9 -56 6 -3
6 -17 1 -35 -5 -17 -6 -30 -2 -30 4 0 6 -19 4 -42 -2 -24 1 -70 7 -103 14 -79
58 -370 71 -465 15 -122 20 -153 30 -195 9 -43 23 -129 45 -295 21 -151 42
-287 55 -345 5 -27 13 -68 16 -90 17 -133 47 -224 83 -253 9 -7 36 -22 61 -33
115 -55 273 24 296 150 5 23 -2 85 -19 176 -15 77 -33 181 -42 230 -8 50 -24
142 -35 205 -25 136 -47 272 -59 355 -9 63 -42 255 -66 390 -8 44 -19 112 -24
150 -25 180 -46 301 -53 306 -5 3 -11 39 -14 80 -3 46 -10 78 -19 85 -9 7 -12
23 -8 50 3 21 0 55 -6 74 l-11 35 5 -45 c3 -35 2 -40 -5 -22 -5 13 -9 60 -9
105 0 46 -8 119 -19 167 l-19 85 -6 -64z m51 -467 c-3 -14 -5 -12 -10 9 -3 19
-2 25 4 19 6 -6 8 -18 6 -28z m29 -16 c-3 -7 -5 -2 -5 12 0 14 2 19 5 13 2 -7
2 -19 0 -25z m-287 -48 c0 -5 -2 -10 -4 -10 -3 0 -8 5 -11 10 -3 6 -1 10 4 10
6 0 11 -4 11 -10z m-23 -152 c-3 -8 -6 -5 -6 6 -1 11 2 17 5 13 3 -3 4 -12 1
-19z m360 -70 c-3 -8 -6 -5 -6 6 -1 11 2 17 5 13 3 -3 4 -12 1 -19z"/>
<path d="M18883 9110 c0 -47 2 -66 4 -42 2 23 2 61 0 85 -2 23 -4 4 -4 -43z"/>
<path d="M18723 9070 c0 -25 2 -35 4 -22 2 12 2 32 0 45 -2 12 -4 2 -4 -23z"/>
<path d="M18601 9023 c0 -5 7 -24 15 -43 l14 -35 -5 34 c-3 18 -5 37 -5 42 0
5 -4 9 -10 9 -5 0 -10 -3 -9 -7z"/>
<path d="M18612 8880 c0 -19 2 -27 5 -17 2 9 2 25 0 35 -3 9 -5 1 -5 -18z"/>
<path d="M3358 3933 l-1128 -3 0 -225 0 -225 493 -2 492 -3 3 -1202 2 -1203
255 0 255 0 0 1205 0 1205 485 0 485 0 0 230 0 230 -107 -2 c-60 -2 -615 -4
-1235 -5z"/>
<path d="M9912 2508 l3 -1433 242 -3 243 -2 2 1011 3 1011 64 -83 c74 -96 399
-502 551 -689 56 -69 304 -378 552 -687 l450 -563 209 0 209 0 0 1430 0 1430
-256 0 -256 0 4 -985 c1 -542 0 -984 -3 -983 -3 2 -116 141 -250 309 -270 339
-863 1077 -1014 1264 -54 66 -149 184 -212 263 l-115 142 -214 0 -214 0 2
-1432z"/>
<path d="M13964 3931 c-3 -3 -2 -647 2 -1431 l7 -1425 248 -3 249 -2 0 1430
c0 1137 -3 1430 -12 1430 -388 5 -489 5 -494 1z"/>
<path d="M15650 3925 c0 -7 9 -35 21 -62 11 -26 50 -120 86 -208 84 -207 162
-395 284 -680 111 -262 230 -544 329 -785 91 -220 173 -415 198 -470 18 -40
48 -110 194 -460 70 -167 79 -184 91 -192 7 -4 122 -8 257 -8 l246 0 17 38
c39 82 167 371 167 376 0 2 13 33 29 68 16 35 45 101 64 148 33 80 100 240
188 448 78 183 122 289 170 405 110 262 149 357 192 457 25 58 66 155 92 215
26 61 68 162 95 225 26 63 69 165 95 225 62 146 105 254 105 266 0 5 -107 9
-264 9 -288 0 -271 4 -298 -65 -17 -42 -111 -269 -205 -490 -30 -71 -71 -173
-90 -225 -20 -52 -39 -99 -43 -105 -5 -5 -26 -57 -48 -115 -22 -58 -70 -177
-107 -265 -37 -88 -77 -187 -89 -220 -13 -33 -39 -100 -59 -150 -139 -346
-191 -479 -214 -543 -15 -40 -30 -69 -34 -65 -9 9 -215 506 -424 1023 -79 195
-158 389 -175 430 -18 41 -87 212 -155 380 -67 168 -133 327 -146 353 l-24 49
-272 3 c-224 3 -273 1 -273 -10z"/>
<path d="M5877 3063 c2 -543 7 -905 14 -967 23 -209 123 -472 236 -618 221
-288 543 -440 963 -455 101 -3 197 -1 248 6 381 51 681 230 868 516 72 111
132 248 160 365 49 205 47 163 51 1118 l4 902 -250 0 -251 0 0 -827 c-1 -906
-5 -994 -55 -1132 -80 -219 -227 -367 -435 -438 -181 -62 -366 -66 -535 -12
-279 88 -443 295 -501 629 -15 82 -17 213 -21 938 l-4 842 -247 0 -247 0 2
-867z"/>
</g>
</svg>
